<svg width="165" height="49" viewBox="0 0 165 49" fill="none" xmlns="http://www.w3.org/2000/svg">
<path d="M159.13 49H5.77989C2.59356 49 0 46.3932 0 43.2021V5.78935C0 2.597 2.59356 0 5.77989 0H159.13C162.315 0 165 2.597 165 5.78935V43.2021C165 46.3932 162.315 49 159.13 49Z" fill="#A6A6A6"/>
<path d="M163.817 43.2029C163.817 45.795 161.722 47.8946 159.131 47.8946H5.78C3.19011 47.8946 1.08789 45.795 1.08789 43.2029V5.78772C1.08789 3.19684 3.19011 1.08984 5.78 1.08984H159.13C161.722 1.08984 163.816 3.19684 163.816 5.78772L163.817 43.2029Z" fill="black"/>
<path d="M36.8233 24.2353C36.7879 20.2872 40.0488 18.3664 40.1979 18.2769C38.3511 15.5783 35.4887 15.2095 34.4828 15.1801C32.0787 14.9266 29.7467 16.622 28.522 16.622C27.2729 16.622 25.387 15.2046 23.3544 15.2463C20.7389 15.2867 18.292 16.8045 16.95 19.1614C14.1804 23.9671 16.246 31.0292 18.8994 34.9137C20.2268 36.8161 21.7778 38.9403 23.8079 38.8655C25.794 38.7834 26.5359 37.5964 28.9327 37.5964C31.3074 37.5964 32.0041 38.8655 34.0745 38.8178C36.2061 38.7834 37.5481 36.9068 38.829 34.9872C40.3629 32.8067 40.9789 30.6593 41.0033 30.549C40.9532 30.5318 36.8637 28.9675 36.8233 24.2353Z" fill="white"/>
<path d="M32.9121 12.6243C33.9803 11.2853 34.7112 9.46376 34.5083 7.61523C32.9622 7.68383 31.0286 8.68711 29.9152 9.99663C28.93 11.1506 28.05 13.042 28.2774 14.8207C30.0142 14.9505 31.7974 13.9424 32.9121 12.6243Z" fill="white"/>
<path d="M65.5666 38.5914H62.791L61.2705 33.8028H55.9856L54.5373 38.5914H51.835L57.071 22.2891H60.305L65.5666 38.5914ZM60.8122 31.7938L59.4372 27.537C59.2917 27.1021 59.0192 26.078 58.6171 24.4659H58.5682C58.4081 25.1592 58.1502 26.1833 57.7957 27.537L56.4452 31.7938H60.8122Z" fill="white"/>
<path d="M79.0319 32.57C79.0319 34.5692 78.4929 36.1495 77.4149 37.3096C76.4493 38.3422 75.2503 38.858 73.8191 38.858C72.2742 38.858 71.1644 38.3018 70.4885 37.1895H70.4396V43.3819H67.8339V30.7068C67.8339 29.45 67.8009 28.16 67.7373 26.837H70.029L70.1744 28.7003H70.2233C71.0923 27.2964 72.4111 26.5957 74.1809 26.5957C75.5644 26.5957 76.7194 27.1433 77.6434 28.2397C78.5699 29.3373 79.0319 30.7803 79.0319 32.57ZM76.3772 32.6656C76.3772 31.5214 76.1205 30.5782 75.6047 29.8358C75.0413 29.0616 74.2847 28.6745 73.3363 28.6745C72.6934 28.6745 72.1092 28.8901 71.5873 29.3152C71.0642 29.744 70.722 30.3038 70.5619 30.9971C70.4812 31.3205 70.4409 31.5851 70.4409 31.7934V33.7534C70.4409 34.6084 70.7024 35.33 71.2255 35.9192C71.7486 36.5084 72.4282 36.8024 73.2642 36.8024C74.2456 36.8024 75.0095 36.4227 75.5559 35.6656C76.1034 34.9073 76.3772 33.9077 76.3772 32.6656Z" fill="white"/>
<path d="M92.5218 32.57C92.5218 34.5692 91.9828 36.1495 90.9036 37.3096C89.9393 38.3422 88.7403 38.858 87.3091 38.858C85.7642 38.858 84.6544 38.3018 83.9797 37.1895H83.9308V43.3819H81.3251V30.7068C81.3251 29.45 81.2921 28.16 81.2285 26.837H83.5202L83.6656 28.7003H83.7145C84.5823 27.2964 85.9011 26.5957 87.6721 26.5957C89.0544 26.5957 90.2094 27.1433 91.1358 28.2397C92.0586 29.3373 92.5218 30.7803 92.5218 32.57ZM89.8672 32.6656C89.8672 31.5214 89.6093 30.5782 89.0935 29.8358C88.5301 29.0616 87.776 28.6745 86.8263 28.6745C86.1822 28.6745 85.5992 28.8901 85.0761 29.3152C84.553 29.744 84.212 30.3038 84.0518 30.9971C83.9724 31.3205 83.9308 31.5851 83.9308 31.7934V33.7534C83.9308 34.6084 84.1924 35.33 84.7131 35.9192C85.2362 36.5072 85.9157 36.8024 86.7542 36.8024C87.7356 36.8024 88.4995 36.4227 89.0459 35.6656C89.5934 34.9073 89.8672 33.9077 89.8672 32.6656Z" fill="white"/>
<path d="M107.603 34.0203C107.603 35.407 107.123 36.5352 106.159 37.4062C105.099 38.358 103.624 38.8333 101.728 38.8333C99.9779 38.8333 98.5748 38.4952 97.5127 37.8178L98.1165 35.6409C99.2605 36.3343 100.516 36.6822 101.883 36.6822C102.865 36.6822 103.629 36.4592 104.177 36.0158C104.724 35.5723 104.996 34.977 104.996 34.2346C104.996 33.5731 104.771 33.0158 104.32 32.5637C103.872 32.1117 103.123 31.6915 102.076 31.3032C99.2287 30.2387 97.806 28.6793 97.806 26.6286C97.806 25.2885 98.3047 24.1896 99.3033 23.3346C100.298 22.4783 101.625 22.0508 103.285 22.0508C104.765 22.0508 105.995 22.3093 106.976 22.825L106.325 24.954C105.408 24.4542 104.372 24.2043 103.212 24.2043C102.295 24.2043 101.579 24.431 101.066 24.8818C100.632 25.2848 100.414 25.776 100.414 26.3579C100.414 27.0022 100.662 27.5351 101.161 27.9541C101.595 28.3412 102.383 28.7601 103.527 29.2121C104.927 29.7769 105.955 30.4371 106.616 31.1942C107.275 31.9488 107.603 32.8933 107.603 34.0203Z" fill="white"/>
<path d="M116.219 28.7972H113.347V34.5045C113.347 35.9561 113.853 36.6813 114.867 36.6813C115.333 36.6813 115.719 36.6409 116.025 36.56L116.097 38.5433C115.583 38.7356 114.907 38.8324 114.07 38.8324C113.041 38.8324 112.237 38.5176 111.656 37.8891C111.078 37.2595 110.787 36.2035 110.787 34.7201V28.7947H109.076V26.8347H110.787V24.6824L113.347 23.9082V26.8347H116.219V28.7972Z" fill="white"/>
<path d="M129.178 32.6185C129.178 34.4254 128.662 35.9089 127.633 37.069C126.554 38.2633 125.122 38.8587 123.336 38.8587C121.615 38.8587 120.245 38.2866 119.223 37.1425C118.201 35.9983 117.69 34.554 117.69 32.8133C117.69 30.9917 118.216 29.4997 119.271 28.3396C120.323 27.1783 121.743 26.5977 123.529 26.5977C125.25 26.5977 126.635 27.1697 127.68 28.3151C128.679 29.4262 129.178 30.8607 129.178 32.6185ZM126.475 32.7031C126.475 31.6189 126.244 30.6892 125.775 29.9137C125.229 28.9754 124.448 28.5074 123.436 28.5074C122.389 28.5074 121.593 28.9766 121.047 29.9137C120.579 30.6904 120.348 31.6349 120.348 32.7521C120.348 33.8362 120.579 34.766 121.047 35.5402C121.61 36.4785 122.397 36.9465 123.413 36.9465C124.408 36.9465 125.189 36.4687 125.752 35.5157C126.233 34.7255 126.475 33.786 126.475 32.7031Z" fill="white"/>
<path d="M137.648 29.1339C137.39 29.0861 137.115 29.0616 136.827 29.0616C135.91 29.0616 135.201 29.4083 134.702 30.1029C134.268 30.7154 134.051 31.4896 134.051 32.4243V38.5921H131.446L131.471 30.539C131.471 29.1841 131.438 27.9506 131.373 26.8383H133.643L133.738 29.0874H133.81C134.085 28.3144 134.519 27.6921 135.113 27.2254C135.694 26.8052 136.321 26.5957 136.996 26.5957C137.237 26.5957 137.455 26.6129 137.648 26.6435V29.1339Z" fill="white"/>
<path d="M149.302 32.159C149.302 32.6269 149.271 33.0214 149.207 33.3436H141.389C141.42 34.5049 141.798 35.393 142.524 36.0055C143.182 36.5531 144.034 36.8275 145.08 36.8275C146.238 36.8275 147.294 36.6425 148.244 36.2713L148.652 38.0843C147.542 38.5694 146.232 38.8107 144.72 38.8107C142.901 38.8107 141.474 38.2742 140.435 37.2023C139.398 36.1304 138.879 34.6911 138.879 32.8854C138.879 31.1128 139.362 29.6367 140.328 28.4595C141.34 27.2026 142.708 26.5742 144.429 26.5742C146.119 26.5742 147.399 27.2026 148.268 28.4595C148.956 29.4579 149.302 30.6927 149.302 32.159ZM146.817 31.4816C146.834 30.7074 146.664 30.0385 146.311 29.4738C145.86 28.7474 145.167 28.3848 144.235 28.3848C143.383 28.3848 142.69 28.7388 142.161 29.4493C141.727 30.014 141.469 30.6914 141.389 31.4803H146.817V31.4816Z" fill="white"/>
<path d="M53.0735 8.90858C53.351 8.74198 53.6638 8.60233 54.0158 8.48718C54.3666 8.37203 54.7797 8.31445 55.2552 8.31445C56.0215 8.31445 56.6253 8.49698 57.0677 8.8608C57.5102 9.22463 57.7314 9.71585 57.7314 10.3345C57.7314 10.8257 57.5835 11.2373 57.2877 11.5705C56.992 11.9037 56.6131 12.1254 56.1547 12.2357V12.2712C56.4077 12.3116 56.6473 12.3802 56.8722 12.4795C57.0983 12.5787 57.2963 12.711 57.4649 12.8776C57.6348 13.0442 57.7693 13.2377 57.8683 13.4607C57.9661 13.6824 58.0162 13.9274 58.0162 14.1981C58.0162 14.6416 57.927 15.014 57.7485 15.3153C57.5701 15.6167 57.3378 15.8617 57.0494 16.0528C56.7622 16.2427 56.4395 16.3799 56.0838 16.4619C55.7282 16.544 55.3725 16.5869 55.0168 16.5869C54.6367 16.5869 54.2615 16.5465 53.89 16.4681C53.5184 16.3897 53.175 16.2586 52.8584 16.0761L53.1786 15.0899C53.384 15.1928 53.6492 15.2921 53.9731 15.3876C54.297 15.4832 54.6245 15.5297 54.957 15.5297C55.5021 15.5297 55.9237 15.4072 56.2195 15.1622C56.5153 14.916 56.6644 14.5877 56.6644 14.1761C56.6644 13.898 56.6045 13.6714 56.486 13.4925C56.3662 13.3137 56.2122 13.174 56.0227 13.0699C55.8333 12.967 55.6218 12.896 55.3884 12.8568C55.155 12.8176 54.924 12.7967 54.6954 12.7967H54.1613V11.8204H54.6954C54.9398 11.8204 55.1672 11.7898 55.3774 11.7249C55.5864 11.6624 55.7685 11.573 55.9225 11.4578C56.0765 11.3427 56.1975 11.2055 56.2843 11.0474C56.3698 10.8894 56.4138 10.7106 56.4138 10.5121C56.4138 10.1556 56.2867 9.87633 56.0337 9.6742C55.7807 9.47208 55.441 9.3704 55.0144 9.3704C54.7223 9.3704 54.429 9.41818 54.1368 9.5125C53.8447 9.60805 53.5832 9.71095 53.3534 9.8212L53.0735 8.90858Z" fill="white"/>
<path d="M63.2554 16.4547L63.1613 15.7896H63.1259C62.7396 16.32 62.1786 16.5858 61.4429 16.5858C61.1813 16.5858 60.9454 16.5417 60.7315 16.4547C60.5176 16.3678 60.3319 16.249 60.1742 16.0983C60.0153 15.9476 59.8943 15.77 59.8063 15.5629C59.7195 15.3571 59.6768 15.1305 59.6768 14.8855C59.6768 14.1652 59.9689 13.6238 60.5543 13.2636C61.1398 12.9035 61.9684 12.7234 63.044 12.7234V12.6168C63.044 11.8561 62.6455 11.4764 61.8486 11.4764C61.2803 11.4764 60.7792 11.6197 60.3465 11.9039L60.0862 11.0611C60.6154 10.7291 61.2742 10.5625 62.0625 10.5625C63.5695 10.5625 64.3237 11.3587 64.3237 12.9512V15.0778C64.3237 15.672 64.3518 16.1314 64.4068 16.456H63.2554V16.4547ZM63.0782 13.5797C62.3632 13.5797 61.8303 13.6703 61.4808 13.8528C61.1312 14.0354 60.9564 14.333 60.9564 14.7446C60.9564 15.046 61.0383 15.2714 61.2033 15.4221C61.3683 15.5728 61.5773 15.6475 61.8291 15.6475C61.9941 15.6475 62.1505 15.6181 62.3009 15.5581C62.45 15.4993 62.5808 15.4172 62.6944 15.3143C62.8093 15.2114 62.901 15.0864 62.9731 14.9394C63.044 14.7924 63.0782 14.6368 63.0782 14.4702V13.5797Z" fill="white"/>
<path d="M70.5014 10.6797V11.7369H68.1058V16.4543H66.8262V10.6797H70.5014Z" fill="white"/>
<path d="M77.8272 13.4969C77.8272 13.9562 77.7636 14.3764 77.6378 14.7562C77.5106 15.1371 77.3359 15.4618 77.1098 15.73C76.8849 15.9995 76.616 16.2102 76.3043 16.3597C75.9914 16.5104 75.6468 16.5863 75.2667 16.5863C74.5077 16.5863 73.9625 16.3131 73.6301 15.7668H73.6057V18.8085H72.3248V12.5818C72.3248 12.2731 72.3211 11.9619 72.3125 11.6483C72.3052 11.336 72.293 11.0126 72.2783 10.6794H73.404L73.4761 11.5944H73.5005C73.9271 10.906 74.5749 10.5605 75.4451 10.5605C75.7837 10.5605 76.099 10.6316 76.3874 10.7737C76.6759 10.917 76.9264 11.1167 77.1403 11.3739C77.3542 11.6312 77.5216 11.9399 77.6439 12.3013C77.7661 12.6626 77.8272 13.0608 77.8272 13.4969ZM76.5243 13.5446C76.5243 13.2592 76.4901 12.9958 76.4229 12.7545C76.3556 12.5132 76.2566 12.3074 76.1271 12.1371C75.9975 11.9668 75.8386 11.8321 75.6529 11.7329C75.4671 11.6336 75.2593 11.5846 75.0295 11.5846C74.8487 11.5846 74.6702 11.6251 74.4954 11.7035C74.3207 11.7819 74.1691 11.8897 74.0395 12.0244C73.9088 12.1592 73.8049 12.3221 73.7254 12.512C73.646 12.7018 73.6057 12.904 73.6057 13.1183V14.0812C73.6057 14.2943 73.6387 14.4928 73.7071 14.6753C73.7743 14.8578 73.8684 15.0159 73.9906 15.1506C74.1129 15.2854 74.2595 15.3907 74.4294 15.4654C74.5993 15.5414 74.7863 15.5781 74.9916 15.5781C75.4744 15.5781 75.8496 15.3944 76.1185 15.0257C76.3874 14.6569 76.5243 14.162 76.5243 13.5446Z" fill="white"/>
<path d="M84.7056 10.6797L83.2463 14.6842C82.8992 15.6348 82.5606 16.4127 82.233 17.0191C81.9043 17.6254 81.5914 18.0664 81.2907 18.3445C80.8483 18.7402 80.3777 18.9827 79.8791 19.0685L79.571 17.988C79.9023 17.9011 80.2188 17.7308 80.5195 17.4772C80.8189 17.2236 81.0597 16.9076 81.243 16.5266C81.3066 16.4004 81.3372 16.3135 81.3372 16.2657C81.3372 16.2179 81.3127 16.1273 81.2663 15.9925L79.1787 10.6809H80.5892L81.6806 13.9014C81.7368 14.0521 81.7918 14.2224 81.8468 14.4123C81.903 14.6021 81.9617 14.8128 82.0253 15.0419H82.0497C82.0888 14.9145 82.1328 14.7553 82.1793 14.5605C82.2269 14.3669 82.2905 14.1428 82.3687 13.8892L83.3416 10.6809H84.7056V10.6797Z" fill="white"/>
<path d="M86.9234 13.0791H87.5149C87.9488 13.0791 88.2862 13.0007 88.5221 12.8415C88.758 12.6822 88.8777 12.4887 88.8777 12.2584C88.8777 12.0207 88.7775 11.8309 88.5746 11.6888C88.3742 11.5467 88.0943 11.4744 87.7386 11.4744C87.5088 11.4744 87.2778 11.5124 87.0468 11.5871C86.8134 11.663 86.5983 11.7561 86.4003 11.8664L86.0691 11.0358C86.4003 10.8545 86.7303 10.7296 87.0603 10.6622C87.3878 10.5948 87.7166 10.5605 88.0491 10.5605C88.3118 10.5605 88.5746 10.5863 88.8386 10.6377C89.1014 10.6892 89.3373 10.7761 89.5426 10.8986C89.748 11.0211 89.9178 11.1816 90.0462 11.3801C90.177 11.5785 90.2417 11.8235 90.2417 12.1175C90.2417 12.3 90.2063 12.4605 90.1342 12.5989C90.0645 12.7374 89.9692 12.8599 89.8506 12.9664C89.7333 13.073 89.6001 13.1612 89.4546 13.2274C89.3092 13.2947 89.1588 13.345 89.011 13.3768V13.4123C89.1992 13.4368 89.3837 13.4846 89.5622 13.5557C89.7394 13.6267 89.8983 13.7198 90.0425 13.835C90.1831 13.9501 90.298 14.0885 90.386 14.2502C90.4715 14.4132 90.5143 14.5969 90.5143 14.8027C90.5143 15.1433 90.4336 15.4287 90.2662 15.6578C90.1012 15.8881 89.8885 16.0694 89.6306 16.2041C89.3752 16.3389 89.0916 16.4356 88.7836 16.4957C88.4756 16.5545 88.175 16.5851 87.8841 16.5851C87.5284 16.5851 87.1752 16.5471 86.8293 16.4724C86.481 16.3964 86.1681 16.2801 85.8906 16.122L86.2243 15.278C86.4296 15.3895 86.6631 15.4826 86.9283 15.5573C87.1935 15.632 87.4636 15.67 87.7398 15.67C88.1737 15.67 88.5086 15.5855 88.7421 15.4152C88.9731 15.2449 89.0904 15.033 89.0904 14.7794C89.0904 14.6128 89.0525 14.4732 88.9731 14.358C88.8936 14.2429 88.7824 14.1498 88.6418 14.0787C88.4988 14.0077 88.3338 13.9575 88.1432 13.9305C87.9549 13.9023 87.7472 13.8889 87.5272 13.8889H86.9234V13.0791Z" fill="white"/>
<path d="M93.763 10.6802V12.7235C93.763 13.1914 93.7557 13.6116 93.7385 13.9828C93.7214 14.3552 93.7031 14.7472 93.6787 15.1588L93.7031 15.1821C93.8534 14.8807 94.0013 14.5867 94.1468 14.2964C94.2947 14.0073 94.4425 13.7121 94.5929 13.4107L96.0155 10.6777H97.6741V16.4524H96.4641V14.4091C96.4641 13.9816 96.4763 13.554 96.4946 13.1265C96.5142 12.6978 96.535 12.2666 96.5594 11.8305H96.4995C96.3663 12.1869 96.2319 12.4956 96.0962 12.7578C95.963 13.0187 95.8285 13.2882 95.6953 13.5663C95.4496 14.0416 95.2064 14.5169 94.9644 14.9922C94.7237 15.4675 94.4682 15.955 94.2005 16.4536H92.542V10.6802H93.763Z" fill="white"/>
<path d="M104.432 10.6797V11.7369H102.679V16.4543H101.42V11.7369H99.6768V10.6797H104.432Z" fill="white"/>
<path d="M110.964 13.2948C110.964 13.405 110.959 13.5104 110.952 13.6096C110.944 13.7088 110.932 13.7983 110.916 13.8767H107.075C107.092 14.423 107.263 14.8456 107.591 15.1421C107.918 15.4385 108.352 15.588 108.889 15.588C109.45 15.588 109.968 15.4973 110.442 15.3148L110.642 16.2066C110.096 16.4443 109.453 16.5631 108.709 16.5631C108.26 16.5631 107.857 16.4933 107.501 16.3548C107.146 16.2164 106.845 16.0204 106.599 15.7668C106.356 15.5133 106.167 15.2082 106.036 14.8518C105.908 14.4953 105.843 14.0959 105.843 13.6525C105.843 13.209 105.908 12.7987 106.036 12.4226C106.167 12.0465 106.351 11.7194 106.587 11.4426C106.825 11.1645 107.113 10.9477 107.446 10.7884C107.782 10.6304 108.158 10.5508 108.568 10.5508C108.931 10.5508 109.26 10.6157 109.56 10.7468C109.855 10.8766 110.108 11.0628 110.316 11.3054C110.526 11.5467 110.686 11.837 110.796 12.1727C110.909 12.5083 110.964 12.8832 110.964 13.2948ZM109.742 12.9628C109.742 12.5108 109.634 12.1445 109.417 11.864C109.199 11.5835 108.885 11.4414 108.474 11.4414C108.101 11.4414 107.787 11.5835 107.527 11.8689C107.267 12.1543 107.116 12.5181 107.076 12.9628H109.742Z" fill="white"/>
<path d="M116.123 10.7268C116.353 10.6876 116.644 10.6557 116.999 10.6312C117.355 10.6067 117.718 10.5957 118.091 10.5957C118.327 10.5957 118.594 10.6104 118.89 10.6374C119.186 10.6643 119.471 10.728 119.737 10.8272C120.007 10.9265 120.231 11.0747 120.413 11.2731C120.595 11.4716 120.688 11.7399 120.688 12.0804C120.688 12.2556 120.655 12.4124 120.593 12.5496C120.528 12.688 120.445 12.8093 120.337 12.9122C120.23 13.0151 120.107 13.1008 119.969 13.167C119.831 13.2344 119.688 13.2846 119.537 13.3152L119.549 13.3507C119.967 13.4218 120.308 13.5725 120.568 13.8028C120.829 14.0331 120.959 14.3491 120.959 14.7534C120.959 15.1576 120.847 15.4786 120.628 15.7162C120.406 15.9539 120.134 16.1327 119.809 16.2515C119.484 16.3704 119.143 16.4463 118.783 16.4782C118.424 16.5088 118.102 16.5259 117.818 16.5259C117.5 16.5259 117.19 16.5186 116.887 16.5014C116.581 16.4855 116.328 16.4696 116.123 16.4537V10.7268ZM117.355 13.0322H118.006C118.204 13.0322 118.393 13.0188 118.57 12.9906C118.748 12.9636 118.904 12.9195 119.038 12.8607C119.174 12.8007 119.276 12.7223 119.353 12.6231C119.428 12.5239 119.466 12.4038 119.466 12.2605C119.466 11.9996 119.358 11.8072 119.138 11.6847C118.921 11.5622 118.58 11.501 118.114 11.501C117.981 11.501 117.863 11.5047 117.763 11.5132C117.665 11.5206 117.53 11.5328 117.355 11.5488V13.0322ZM117.355 15.5864C117.513 15.6023 117.646 15.6133 117.751 15.6219C117.859 15.6305 117.982 15.6341 118.126 15.6341C118.301 15.6341 118.477 15.6231 118.659 15.5986C118.84 15.5753 119.007 15.53 119.158 15.4626C119.308 15.3965 119.428 15.3058 119.518 15.1907C119.609 15.0768 119.656 14.9249 119.656 14.7362C119.656 14.4055 119.509 14.1776 119.218 14.0514C118.924 13.9253 118.531 13.8628 118.031 13.8628H117.355V15.5864Z" fill="white"/>
</svg>
