<svg width="165" height="49" viewBox="0 0 165 49" fill="none" xmlns="http://www.w3.org/2000/svg">
<path d="M153.25 0H10.3022C9.93094 0 9.55762 0 9.18122 0.014913C8.36137 0.0255652 7.54359 0.098 6.73509 0.231152C5.92799 0.363343 5.1441 0.617454 4.40859 0.985326C3.68214 1.35155 3.01466 1.8312 2.42963 2.40739C1.85419 2.9742 1.3715 3.6336 1.00031 4.35993C0.630206 5.07946 0.372646 5.85494 0.237188 6.65761C0.101406 7.45338 0.0279496 8.25916 0.0175313 9.06713C0 9.43676 0 9.80533 0 10.175V38.6642C0 39.0477 0 39.4013 0.0175313 39.7763C0.0278438 40.5848 0.100031 41.3912 0.236156 42.1879C0.37125 42.9868 0.628031 43.7623 1.00031 44.4845C1.37273 45.2098 1.85804 45.867 2.43684 46.4296C3.01434 47.0048 3.68259 47.4853 4.41478 47.8517C5.14697 48.2203 5.93072 48.478 6.74128 48.6176C7.54875 48.7401 8.36447 48.804 9.18019 48.8093C9.55659 48.8093 9.92887 48.8221 10.3012 48.8221H154.573C154.944 48.8221 155.327 48.8221 155.699 48.8083C156.517 48.7976 157.333 48.7273 158.14 48.5952C158.947 48.4558 159.73 48.1982 160.467 47.8304C161.193 47.4681 161.859 46.9888 162.44 46.4105C163.019 45.8458 163.506 45.1892 163.883 44.4654C164.251 43.7459 164.506 42.9707 164.639 42.1688C164.775 41.3709 164.85 40.5656 164.866 39.7571V38.645V11.483V10.1675V9.05967C164.85 8.25026 164.775 7.44327 164.639 6.64589C164.506 5.84358 164.251 5.06808 163.883 4.34822C163.113 2.88715 161.919 1.71139 160.47 0.985326C159.733 0.619059 158.949 0.365026 158.142 0.231152C157.332 0.0975584 156.513 0.0263478 155.693 0.0181087C155.322 0.0181087 154.939 0.00426087 154.567 0.00213043L153.25 0Z" fill="#B6B6B6"/>
<path d="M10.3091 47.7778C9.93678 47.7778 9.57172 47.7778 9.20356 47.7639C8.43943 47.7555 7.67682 47.6914 6.92141 47.5722C6.22075 47.4522 5.54018 47.2298 4.90016 46.9118C4.2728 46.5986 3.69717 46.1852 3.19447 45.6868C2.69223 45.2005 2.2713 44.6318 1.94872 44.0037C1.62692 43.3784 1.40344 42.7042 1.28666 42.0064C1.16394 41.2608 1.09897 40.5045 1.09278 39.7482C1.09278 39.4925 1.07422 38.6478 1.07422 38.6478V10.1756C1.07422 10.1756 1.08453 9.34368 1.09278 9.09868C1.1 8.34237 1.16497 7.58926 1.28666 6.84361C1.40319 6.14589 1.62697 5.46948 1.94975 4.83994C2.27119 4.21182 2.6899 3.64223 3.18931 3.1537C3.69416 2.65284 4.27047 2.23503 4.89809 1.91485C5.53705 1.59977 6.21683 1.38198 6.91625 1.26826C7.67393 1.14765 8.43903 1.08357 9.20563 1.07653L10.3101 1.06055H154.563L155.678 1.07653C156.438 1.08398 157.197 1.14789 157.947 1.26826C158.654 1.38699 159.341 1.60938 159.987 1.9287C161.239 2.56002 162.27 3.57968 162.934 4.84526C163.253 5.47055 163.473 6.14057 163.587 6.83189C163.714 7.58394 163.785 8.3445 163.8 9.10613V39.7567C163.786 40.506 163.716 41.253 163.593 41.9915C163.477 42.6937 163.254 43.3724 162.933 44.0027C162.608 44.6242 162.189 45.1883 161.692 45.674C161.19 46.175 160.613 46.5903 159.985 46.9043C159.343 47.2249 158.657 47.4486 157.949 47.569C157.194 47.6883 156.431 47.7522 155.667 47.7607C155.31 47.7607 154.936 47.7735 154.572 47.7735H10.3091V47.7778Z" fill="black"/>
<path d="M61.151 33.0015H55.4286L54.0292 36.782H51.5088L57.1105 22.6689H59.4886L65.2203 36.782H62.5813L61.151 33.0005V33.0015ZM56.1494 31.0873H60.4157L58.8864 27.0448C58.677 26.4888 58.4697 25.872 58.2655 25.1956C58.0799 25.7921 57.8809 26.4025 57.6643 27.0257L56.1504 31.0873H56.1494ZM66.3608 28.844C66.3608 28.0664 66.3351 27.2078 66.2835 26.2715H68.5708C68.6564 26.7146 68.7152 27.162 68.7492 27.6115C69.6959 26.59 70.7808 26.0797 72.0049 26.0797C73.4981 26.0563 74.8573 26.9287 75.442 28.2847C75.8143 29.0506 76.001 30.02 76.001 31.1928C76.0302 32.2782 75.8115 33.3555 75.3626 34.3373C74.9761 35.1668 74.3556 35.856 73.5827 36.3144C72.7804 36.7724 71.8657 37.0067 70.9386 36.9886C70.2135 36.9869 69.4934 36.8646 68.8059 36.6265V40.9598L66.3681 41.1643L66.3608 28.844ZM72.769 34.2148C73.264 33.5565 73.5136 32.5935 73.5136 31.3259C73.5136 30.151 73.3074 29.2999 72.8969 28.7715C72.7033 28.5144 72.4535 28.3084 72.168 28.1703C71.8824 28.0321 71.5693 27.9659 71.2541 27.9769C70.7968 27.9728 70.3457 28.0863 69.9413 28.3071C69.5185 28.5457 69.1328 28.845 68.7977 29.1944V34.823C69.0689 34.9487 69.3546 35.0425 69.6474 35.1C69.9609 35.1682 70.2817 35.2023 70.6024 35.2023C71.5511 35.2023 72.273 34.8731 72.768 34.2148H72.769ZM77.5561 28.844C77.5561 28.0664 77.5293 27.2078 77.4767 26.2715H79.7661C79.8517 26.7146 79.9104 27.162 79.9424 27.6115C80.8912 26.59 81.976 26.0797 83.1981 26.0797C84.6923 26.0552 86.0526 26.9277 86.6373 28.2847C87.0075 29.0506 87.1931 30.02 87.1942 31.1928C87.224 32.278 87.0061 33.3553 86.5579 34.3373C86.1706 35.1669 85.5494 35.8561 84.7759 36.3144C83.9746 36.7735 83.0599 37.0067 82.1338 36.9886C81.4084 36.987 80.6879 36.8647 80.0002 36.6265V40.9598L77.5561 41.1728V28.844ZM83.9643 34.2148C84.4593 33.5565 84.7078 32.5935 84.7078 31.3259C84.7078 30.151 84.5026 29.2999 84.0922 28.7715C83.8986 28.5144 83.6488 28.3084 83.3632 28.1703C83.0777 28.0321 82.7645 27.9659 82.4494 27.9769C81.992 27.9726 81.5408 28.0861 81.1366 28.3071C80.7153 28.5434 80.33 28.8423 79.9929 29.1944V34.823C80.2631 34.9487 80.5478 35.0425 80.8406 35.1C81.1552 35.1682 81.4759 35.2023 81.7976 35.2023C82.7495 35.2023 83.4724 34.8731 83.9674 34.2148H83.9643ZM91.7946 36.113C90.7635 35.5607 89.9175 34.7002 89.367 33.6439C88.8029 32.5722 88.5203 31.3068 88.5203 29.8464C88.5203 28.2624 88.8431 26.917 89.4897 25.8092C90.118 24.7265 91.0433 23.8609 92.1483 23.3219C93.3287 22.7534 94.6184 22.4686 95.9206 22.4889C97.4541 22.4828 98.9702 22.8254 100.361 23.4923L99.7383 25.3426C98.5802 24.7659 97.3153 24.4541 96.0299 24.4287C95.1226 24.4072 94.2247 24.623 93.4198 25.0561C92.6713 25.4752 92.0631 26.1183 91.6749 26.901C91.2389 27.8148 91.0258 28.8248 91.0541 29.8432C91.0376 30.7582 91.1985 31.6679 91.5316 32.5222C91.8307 33.2785 92.3587 33.924 93.0413 34.3735C93.7282 34.8262 94.5944 35.0542 95.6401 35.0553C96.116 35.0553 96.5912 35.0162 97.0612 34.9381C97.5149 34.8657 97.9604 34.7517 98.3935 34.5972V31.736H95.0966V29.8581H100.768V35.7913C99.9456 36.1705 99.0845 36.4614 98.1997 36.6595C97.32 36.8576 96.4218 36.9577 95.5194 36.9599C94.2294 36.9968 92.9504 36.706 91.7946 36.113ZM109.548 36.782C109.456 36.3226 109.4 35.8563 109.38 35.3876C108.972 35.8552 108.474 36.2377 107.915 36.5135C107.28 36.8291 106.582 36.987 105.877 36.9748C105.302 36.9823 104.732 36.8617 104.207 36.6211C103.713 36.3935 103.296 36.0203 103.007 35.5485C102.7 35.0226 102.547 34.4156 102.567 33.8015C102.551 33.3323 102.644 32.8661 102.838 32.4416C103.033 32.0171 103.322 31.6466 103.683 31.3611C104.425 30.7539 105.665 30.4514 107.402 30.4493C108.05 30.4493 108.698 30.4951 109.34 30.5877V30.3832C109.34 29.4544 109.14 28.7992 108.739 28.419C108.338 28.0387 107.762 27.8469 107.012 27.8437C106.449 27.8498 105.889 27.9253 105.344 28.0685C104.811 28.1985 104.292 28.3774 103.793 28.6043L103.405 26.851C103.96 26.6176 104.535 26.4383 105.122 26.3152C105.861 26.1496 106.616 26.0681 107.372 26.0723C108.172 26.0505 108.969 26.1909 109.718 26.4856C110.374 26.7721 110.908 27.2739 111.228 27.9077C111.59 28.5787 111.771 29.4842 111.771 30.6197V34.7985C111.771 35.2332 111.797 35.8915 111.851 36.7756L109.548 36.782ZM108.093 34.8348C108.56 34.6234 108.983 34.3193 109.336 33.94V31.9874C108.796 31.9244 108.253 31.8888 107.71 31.8809C106.703 31.8809 106.008 32.0407 105.624 32.3624C105.435 32.5165 105.283 32.7144 105.182 32.9403C105.081 33.1661 105.033 33.4133 105.042 33.662C105.042 34.1839 105.181 34.5663 105.461 34.8113C105.777 35.0776 106.185 35.214 106.6 35.1937C107.117 35.1871 107.627 35.0642 108.093 34.8337V34.8348ZM113.894 34.2606V21.8402L116.322 21.6484V33.8324C116.322 34.2798 116.399 34.5994 116.553 34.789C116.648 34.8881 116.764 34.9643 116.891 35.0122C117.018 35.06 117.154 35.0784 117.289 35.0659C117.506 35.0553 117.721 35.0201 117.928 34.9594L118.217 36.6819C117.943 36.7831 117.66 36.8563 117.373 36.9002C117.061 36.9535 116.747 36.9812 116.43 36.9822C114.74 36.9769 113.894 36.0704 113.894 34.2606ZM119.963 34.2606V21.8402L122.389 21.6484V33.8324C122.389 34.2798 122.466 34.5994 122.622 34.789C122.717 34.8882 122.832 34.9644 122.959 35.0123C123.086 35.0602 123.221 35.0785 123.356 35.0659C123.574 35.0553 123.789 35.0201 123.998 34.9594L124.283 36.6819C124.01 36.7834 123.727 36.8565 123.439 36.9002C123.128 36.9535 122.814 36.9812 122.497 36.9822C120.806 36.9769 119.962 36.0704 119.963 34.2606ZM134.386 31.834H127.42C127.534 34.0348 128.596 35.1362 130.608 35.1362C131.123 35.133 131.639 35.0723 132.141 34.9551C132.657 34.838 133.159 34.676 133.647 34.4737L134.179 36.1194C132.918 36.7051 131.547 36.9971 130.164 36.9748C129.033 36.9748 128.079 36.7639 127.302 36.3431C126.549 35.9408 125.938 35.3034 125.557 34.5216C125.144 33.6258 124.945 32.6412 124.975 31.6498C124.948 30.6131 125.161 29.5847 125.596 28.6501C125.978 27.8505 126.581 27.185 127.327 26.737C128.108 26.2844 128.992 26.0557 129.887 26.0744C130.892 26.0744 131.733 26.3066 132.407 26.7711C133.072 27.2241 133.593 27.869 133.906 28.6256C134.239 29.4426 134.402 30.3172 134.386 31.1981V31.834ZM132.008 30.3023C131.963 29.4639 131.748 28.8365 131.369 28.4168C131.171 28.2063 130.933 28.0414 130.669 27.9331C130.405 27.8247 130.122 27.7754 129.838 27.7884C129.552 27.7788 129.266 27.8303 128.999 27.9395C128.732 28.0487 128.49 28.2133 128.287 28.4232C127.875 28.844 127.607 29.4703 127.483 30.3023H132.008ZM136.35 28.9111C136.35 28.3327 136.323 27.4528 136.271 26.2715H138.55C138.591 26.5644 138.627 26.9127 138.664 27.3186C138.701 27.7234 138.724 28.0557 138.737 28.3082C138.983 27.8981 139.261 27.5093 139.571 27.1439C139.839 26.8329 140.163 26.574 140.527 26.3791C140.911 26.1756 141.341 26.0734 141.775 26.0819C142.103 26.0755 142.429 26.1138 142.745 26.199L142.439 28.2826C142.182 28.2079 141.916 28.172 141.649 28.1761C141.119 28.1637 140.597 28.3142 140.149 28.6086C139.619 29.003 139.156 29.4849 138.778 30.0349V36.7852H136.349V28.9111H136.35ZM144.204 41.0801C143.907 41.0324 143.614 40.9626 143.327 40.8713L143.769 39.1191C143.934 39.1617 144.141 39.2064 144.391 39.249C144.626 39.2906 144.863 39.3119 145.101 39.3129C146.179 39.3129 146.988 38.6291 147.528 37.2581L147.685 36.8747L143.759 26.2789H146.374L148.346 32.2015C148.604 32.9632 148.811 33.7408 148.969 34.529C149.153 33.7621 149.37 33.0037 149.621 32.2495L151.621 26.2715H154.076L150.161 36.9173C149.866 37.7784 149.464 38.5968 148.967 39.3524C148.586 39.9265 148.065 40.3984 147.453 40.7243C146.793 41.0396 146.072 41.1928 145.345 41.1717C144.963 41.1736 144.581 41.143 144.204 41.0801Z" fill="white"/>
<path fill-rule="evenodd" clip-rule="evenodd" d="M33.4153 8.88477H19.6491C13.1657 8.88477 10.7969 11.225 10.7969 17.6238V31.2139C10.7969 37.6126 13.1657 39.954 19.6491 39.954H33.4163C39.8977 39.954 42.2727 37.6126 42.2727 31.2139V17.6238C42.2665 11.225 39.8977 8.88477 33.4153 8.88477Z" fill="#C8102E"/>
<path d="M17.0328 24.4179H17.8681V28.4796H17.0328V26.8285H15.1487V28.4796H14.3145V24.4179H15.1487V26.0563H17.0328V24.4179ZM21.7364 26.7433C21.7364 27.4038 21.4033 27.7553 20.8 27.7553C20.1967 27.7553 19.8595 27.3931 19.8595 26.7146V24.4179H19.0262V26.7412C19.0262 27.8895 19.6677 28.5382 20.7897 28.5382C21.9137 28.5382 22.5706 27.8703 22.5706 26.706V24.4105H21.7364V26.7433ZM31.3827 27.2099L30.4504 24.4179H29.7677L28.8334 27.2099L27.9197 24.419H27.0298L28.4642 28.4796H29.1552L30.0915 25.8134L31.0259 28.4796H31.724L33.1544 24.4201H32.2902L31.3827 27.211V27.2099ZM34.6559 26.7316H36.1739V25.9934H34.6559V25.1604H36.8596V24.4211H33.8319V28.4775H36.9339V27.7372H34.6548V26.7316H34.6559ZM37.9342 28.4732H38.7582V24.4179H37.9342V28.4732ZM24.2206 27.6317L23.8484 28.4775H22.9945L24.8074 24.4179H25.5448L27.3495 28.4764H26.475L26.1047 27.6317H24.2206ZM24.53 26.8999H25.7871L25.1529 25.4459L24.531 26.8999H24.53ZM26.5358 19.2474C23.6442 19.2474 21.3001 16.9337 21.3001 14.08H22.0406C22.0076 15.6885 22.8573 17.1883 24.2619 18.0021C24.9579 18.4024 25.7413 18.6125 26.5379 18.6125C27.3344 18.6125 28.1178 18.4024 28.8138 18.0021C30.2194 17.1883 31.0692 15.6874 31.0351 14.08H31.7766C31.7737 14.7651 31.636 15.4425 31.3719 16.071C31.1077 16.6994 30.7227 17.2659 30.24 17.7358C29.2392 18.7127 27.9128 19.2543 26.5358 19.2484V19.2474ZM52.8574 17.3087C52.3543 17.0298 51.9429 16.6027 51.6756 16.0816C51.3933 15.5134 51.2526 14.8815 51.2662 14.243C51.2515 13.5732 51.4016 12.9106 51.7024 12.3171C51.9882 11.7724 52.4258 11.3289 52.9585 11.0441C53.5588 10.731 54.2249 10.5765 54.8972 10.5946C55.5348 10.5773 56.1662 10.7268 56.7328 11.0292C57.2382 11.3126 57.6445 11.7376 57.9033 12.25C58.1818 12.8188 58.3199 13.4462 58.3055 14.0779C58.3215 14.7546 58.1703 15.4244 57.8662 16.024C57.581 16.5679 57.1456 17.0118 56.6153 17.2991C56.0275 17.608 55.3675 17.7635 54.7003 17.7465C54.06 17.7655 53.4256 17.6152 52.8574 17.3098V17.3087ZM56.013 16.4608C56.3554 16.2318 56.6225 15.9069 56.7782 15.5266C56.9535 15.0962 57.0391 14.6339 57.0298 14.1695C57.0402 13.7114 56.9649 13.2555 56.8092 12.8241C56.6681 12.4442 56.4185 12.1177 56.0935 11.8878C55.7155 11.6421 55.2743 11.5207 54.8281 11.5395C54.3842 11.5253 53.9463 11.6488 53.571 11.8942C53.2272 12.1275 52.9575 12.4602 52.7955 12.8507C52.6202 13.2662 52.5357 13.7136 52.5439 14.1642C52.5346 14.6222 52.6161 15.076 52.7811 15.5042C52.9296 15.8834 53.1884 16.2104 53.5246 16.4459C53.8963 16.6862 54.329 16.8068 54.7673 16.7921C55.2066 16.808 55.6408 16.693 56.012 16.4618L56.013 16.4608ZM60.7743 11.695H58.5891L58.6963 10.6905H64.1774L64.065 11.695H61.9922V17.6517H60.7743V11.695ZM70.7362 17.6506H69.3636L67.266 14.5892H66.4318V17.6517H65.2159V10.6905H66.4328V13.5612H67.0701L68.5314 11.4841C68.7005 11.2199 68.9191 10.9909 69.1759 10.8087C69.4213 10.6596 69.706 10.585 69.9937 10.5946C70.2443 10.5904 70.4928 10.6372 70.7248 10.7278L70.4691 11.6758C70.346 11.6234 70.2145 11.5956 70.0813 11.5938C69.9513 11.59 69.8233 11.6272 69.7142 11.7003C69.5964 11.7927 69.4943 11.9046 69.4121 12.0316L68.1127 13.8574L70.7362 17.6517V17.6506ZM71.6674 10.6905H73.5649C74.458 10.6905 75.1417 10.8694 75.615 11.2295C76.0873 11.5895 76.3245 12.1083 76.3266 12.7858C76.3348 13.2108 76.2235 13.6294 76.0048 13.9959C75.7885 14.3432 75.4794 14.6185 75.1149 14.7884C74.7055 14.9791 74.2579 15.0739 73.8052 15.0653C73.495 15.0613 73.1858 15.0289 72.8812 14.9684V17.6474H71.6633L71.6674 10.6905ZM74.7189 13.7988C74.987 13.5431 75.1293 13.1831 75.1066 12.8145C75.1066 12.3863 74.9746 12.0753 74.7189 11.8878C74.3671 11.6757 73.9621 11.5767 73.5556 11.6034H72.8946V14.0747C73.1256 14.1152 73.3587 14.1386 73.5948 14.1471C74.0001 14.1727 74.4013 14.0481 74.7189 13.7988ZM78.6686 17.3087C78.1647 17.0305 77.7528 16.6032 77.4857 16.0816C77.2034 15.5134 77.0627 14.8815 77.0763 14.243C77.0619 13.5735 77.2112 12.9111 77.5105 12.3171C77.7965 11.7722 78.2345 11.3287 78.7676 11.0441C79.3679 10.7311 80.034 10.5767 80.7063 10.5946C81.3432 10.5774 81.974 10.7269 82.5399 11.0292C83.0452 11.3115 83.4536 11.7365 83.7114 12.25C83.9909 12.8188 84.1301 13.4451 84.1167 14.0779C84.1324 14.7547 83.9808 15.4245 83.6763 16.024C83.3894 16.5679 82.9521 17.011 82.4202 17.297C81.8314 17.6059 81.1724 17.7614 80.5042 17.7444C79.8664 17.7624 79.2347 17.6125 78.6686 17.3087ZM81.8211 16.4608C82.1686 16.2318 82.4398 15.9058 82.5966 15.5234C82.7699 15.0909 82.8523 14.6286 82.841 14.1642C82.8488 13.7068 82.7725 13.2521 82.6162 12.8241C82.4751 12.4442 82.2255 12.1177 81.9005 11.8878C81.5226 11.6412 81.0807 11.5196 80.6341 11.5395C80.1912 11.5258 79.7545 11.6493 79.3801 11.8942C79.037 12.1283 78.7675 12.4607 78.6046 12.8507C78.4293 13.2662 78.3406 13.7136 78.3468 14.1642C78.3406 14.6222 78.4231 15.0771 78.5912 15.5042C78.7387 15.8834 78.9975 16.2115 79.3358 16.4459C79.7029 16.6855 80.136 16.807 80.5764 16.7921C81.0157 16.808 81.4488 16.6919 81.8211 16.4618V16.4608ZM90.3155 17.6517V13.8233C90.3155 13.3418 90.333 12.79 90.3671 12.1701L86.8309 17.6506H85.4728V10.6894H86.603V14.6648C86.603 15.0973 86.5896 15.5702 86.5587 16.0826L90.0484 10.6894H91.4468V17.6506H90.3165L90.3155 17.6517ZM87.5683 10.0854C87.3336 9.96832 87.133 9.78939 86.9866 9.56668C86.8532 9.36111 86.7655 9.12756 86.7298 8.88281H87.6064C87.6992 9.39625 88.0065 9.6487 88.5222 9.6487C89.0378 9.6487 89.3441 9.39305 89.4431 8.88281H90.3227C90.2877 9.12781 90.199 9.36216 90.0628 9.56988C89.9185 9.79038 89.7184 9.96933 89.4812 10.0886C89.18 10.2216 88.8559 10.2901 88.5283 10.2901C88.2008 10.2901 87.8767 10.2216 87.5755 10.0886L87.5683 10.0854ZM94.6622 11.695H92.4853L92.5915 10.6905H98.0788L97.9663 11.695H95.8801V17.6517H94.6622V11.695ZM99.1028 10.6905H103.256L103.149 11.6758H100.32V13.59H102.978V14.5157H100.32V16.6525H103.291L103.188 17.6538H99.1028V10.6905ZM111.779 14.2121C112.031 14.3584 112.239 14.5727 112.382 14.832C112.525 15.0914 112.596 15.386 112.589 15.6842C112.597 16.0475 112.494 16.4054 112.295 16.7122C112.082 17.0211 111.783 17.2607 111.433 17.4024C111.002 17.5777 110.54 17.6625 110.076 17.6517H107.776V10.6905H109.975C110.722 10.6905 111.281 10.8332 111.655 11.1187C112.025 11.3957 112.235 11.8335 112.215 12.2926C112.228 12.6686 112.1 13.0372 111.856 13.328C111.61 13.6092 111.284 13.8126 110.92 13.9117C111.224 13.9532 111.516 14.0555 111.779 14.2121ZM108.966 13.5357H109.726C109.958 13.541 110.188 13.4899 110.395 13.3866C110.579 13.2971 110.733 13.1575 110.84 12.985C110.944 12.8198 110.998 12.6267 110.995 12.43C111.002 12.3046 110.977 12.1794 110.923 12.0672C110.868 11.955 110.785 11.8596 110.684 11.7909C110.406 11.6337 110.09 11.5606 109.774 11.5799H108.966V13.5357ZM111.005 16.4608C111.247 16.2349 111.38 15.9196 111.373 15.5916C111.368 15.4276 111.329 15.2665 111.259 15.1193C111.189 14.972 111.089 14.8421 110.966 14.7383C110.61 14.514 110.196 14.4084 109.78 14.4358H108.966V16.7708H109.88C110.383 16.7644 110.757 16.661 111.004 16.4618L111.005 16.4608Z" fill="white"/>
</svg>
