<svg width="165" height="49" viewBox="0 0 165 49" fill="none" xmlns="http://www.w3.org/2000/svg">
<path d="M158.889 49H6.11111C2.68889 49 0 46.305 0 42.875V6.125C0 2.695 2.68889 0 6.11111 0H158.889C162.311 0 165 2.695 165 6.125V42.875C165 46.305 162.311 49 158.889 49Z" fill="black"/>
<path d="M158.889 0.98C161.7 0.98 164.022 3.3075 164.022 6.125V42.875C164.022 45.6925 161.7 48.02 158.889 48.02H6.11111C3.3 48.02 0.977778 45.6925 0.977778 42.875V6.125C0.977778 3.3075 3.3 0.98 6.11111 0.98H158.889ZM158.889 0H6.11111C2.68889 0 0 2.8175 0 6.125V42.875C0 46.305 2.68889 49 6.11111 49H158.889C162.311 49 165 46.305 165 42.875V6.125C165 2.8175 162.311 0 158.889 0Z" fill="#A6A6A6"/>
<path d="M83.2334 26.7048C80.3001 26.7048 77.9778 28.9098 77.9778 31.9723C77.9778 34.9123 80.3001 37.2398 83.2334 37.2398C86.1667 37.2398 88.4889 35.0348 88.4889 31.9723C88.4889 28.7873 86.1667 26.7048 83.2334 26.7048ZM83.2334 35.0348C81.6445 35.0348 80.3001 33.6873 80.3001 31.8498C80.3001 30.0123 81.6445 28.6648 83.2334 28.6648C84.8223 28.6648 86.1667 29.8898 86.1667 31.8498C86.1667 33.6873 84.8223 35.0348 83.2334 35.0348ZM71.8667 26.7048C68.9334 26.7048 66.6112 28.9098 66.6112 31.9723C66.6112 34.9123 68.9334 37.2398 71.8667 37.2398C74.8001 37.2398 77.1223 35.0348 77.1223 31.9723C77.1223 28.7873 74.8001 26.7048 71.8667 26.7048ZM71.8667 35.0348C70.2778 35.0348 68.9334 33.6873 68.9334 31.8498C68.9334 30.0123 70.2778 28.6648 71.8667 28.6648C73.4556 28.6648 74.8001 29.8898 74.8001 31.8498C74.8001 33.6873 73.4556 35.0348 71.8667 35.0348ZM58.3001 28.2973V30.5023H63.5556C63.4334 31.7273 62.9445 32.7073 62.3334 33.3198C61.6001 34.0548 60.3778 34.9123 58.3001 34.9123C55.0001 34.9123 52.5556 32.3398 52.5556 29.0323C52.5556 25.7248 55.1223 23.1523 58.3001 23.1523C60.0112 23.1523 61.3556 23.8873 62.3334 24.7448L63.9223 23.1523C62.5778 21.9273 60.8667 20.9473 58.4223 20.9473C54.0223 20.9473 50.2334 24.6223 50.2334 29.0323C50.2334 33.4423 54.0223 37.1173 58.4223 37.1173C60.8667 37.1173 62.5778 36.3823 64.0445 34.7898C65.5112 33.3198 66.0001 31.2373 66.0001 29.6448C66.0001 29.1548 66.0001 28.6648 65.8778 28.2973H58.3001ZM113.789 30.0123C113.3 28.7873 112.078 26.7048 109.389 26.7048C106.7 26.7048 104.5 28.7873 104.5 31.9723C104.5 34.9123 106.7 37.2398 109.633 37.2398C111.956 37.2398 113.422 35.7698 113.911 34.9123L112.2 33.6873C111.589 34.5448 110.856 35.1573 109.633 35.1573C108.411 35.1573 107.678 34.6673 107.067 33.5648L114.033 30.6248L113.789 30.0123ZM106.7 31.7273C106.7 29.7673 108.289 28.6648 109.389 28.6648C110.244 28.6648 111.1 29.1548 111.344 29.7673L106.7 31.7273ZM100.956 36.7498H103.278V21.4373H100.956V36.7498ZM97.2889 27.8073C96.6778 27.1948 95.7001 26.5823 94.4778 26.5823C91.9112 26.5823 89.4667 28.9098 89.4667 31.8498C89.4667 34.7898 91.7889 36.9948 94.4778 36.9948C95.7001 36.9948 96.6778 36.3823 97.1667 35.7698H97.2889V36.5048C97.2889 38.4648 96.1889 39.5673 94.4778 39.5673C93.1334 39.5673 92.1556 38.5873 91.9112 37.7298L89.9556 38.5873C90.5667 39.9348 92.0334 41.6498 94.6001 41.6498C97.2889 41.6498 99.4889 40.0573 99.4889 36.2598V26.9498H97.2889V27.8073ZM94.6001 35.0348C93.0112 35.0348 91.6667 33.6873 91.6667 31.8498C91.6667 30.0123 93.0112 28.6648 94.6001 28.6648C96.1889 28.6648 97.4112 30.0123 97.4112 31.8498C97.4112 33.6873 96.1889 35.0348 94.6001 35.0348ZM124.422 21.4373H118.922V36.7498H121.244V30.9923H124.422C126.989 30.9923 129.433 29.1548 129.433 26.2148C129.433 23.2748 126.989 21.4373 124.422 21.4373ZM124.544 28.7873H121.244V23.5198H124.544C126.256 23.5198 127.233 24.9898 127.233 26.0923C127.111 27.4398 126.133 28.7873 124.544 28.7873ZM138.6 26.5823C136.889 26.5823 135.178 27.3173 134.567 28.9098L136.644 29.7673C137.133 28.9098 137.867 28.6648 138.722 28.6648C139.944 28.6648 141.044 29.3998 141.167 30.6248V30.7473C140.8 30.5023 139.822 30.1348 138.844 30.1348C136.644 30.1348 134.444 31.3598 134.444 33.5648C134.444 35.6473 136.278 36.9948 138.233 36.9948C139.822 36.9948 140.556 36.2598 141.167 35.5248H141.289V36.7498H143.489V30.8698C143.244 28.1748 141.167 26.5823 138.6 26.5823ZM138.356 35.0348C137.622 35.0348 136.522 34.6673 136.522 33.6873C136.522 32.4623 137.867 32.0948 138.967 32.0948C139.944 32.0948 140.433 32.3398 141.044 32.5848C140.8 34.0548 139.578 35.0348 138.356 35.0348ZM151.189 26.9498L148.622 33.5648H148.5L145.811 26.9498H143.367L147.4 36.2598L145.078 41.4048H147.4L153.633 26.9498H151.189ZM130.656 36.7498H132.978V21.4373H130.656V36.7498Z" fill="white"/>
<path d="M12.7115 9.1875C12.3449 9.555 12.2227 10.1675 12.2227 10.9025V37.975C12.2227 38.71 12.4671 39.3225 12.8338 39.69L12.956 39.8125L28.1115 24.6225V24.5V24.3775L12.7115 9.1875Z" fill="url(#paint0_linear)"/>
<path d="M33.0004 29.768L27.9893 24.7455V24.5005V24.378L33.0004 19.3555L33.1226 19.478L39.1115 22.908C40.8226 23.888 40.8226 25.4805 39.1115 26.4605L33.0004 29.768Z" fill="url(#paint1_linear)"/>
<path d="M33.123 29.645L27.9897 24.5L12.7119 39.8125C13.323 40.425 14.1786 40.425 15.2786 39.935L33.123 29.645Z" fill="url(#paint2_linear)"/>
<path d="M33.123 19.3553L15.2786 9.18784C14.1786 8.57534 13.323 8.69784 12.7119 9.31034L27.9897 24.5003L33.123 19.3553Z" fill="url(#paint3_linear)"/>
<path opacity="0.2" d="M33.0008 29.5234L15.2786 39.5684C14.3008 40.1809 13.4452 40.0584 12.8341 39.5684L12.7119 39.6909L12.8341 39.8134C13.4452 40.3034 14.3008 40.4259 15.2786 39.8134L33.0008 29.5234Z" fill="black"/>
<path opacity="0.12" d="M12.7115 39.5685C12.3449 39.201 12.2227 38.5885 12.2227 37.8535V37.976C12.2227 38.711 12.4671 39.3235 12.8338 39.691V39.5685H12.7115Z" fill="black"/>
<path opacity="0.12" d="M39.1111 26.0925L33 29.5225L33.1222 29.645L39.1111 26.215C39.9667 25.725 40.3333 25.1125 40.3333 24.5C40.3333 25.1125 39.8444 25.6025 39.1111 26.0925Z" fill="black"/>
<path opacity="0.25" d="M15.2782 9.31055L39.1115 22.9081C39.8449 23.3981 40.3338 23.8881 40.3338 24.5006C40.3338 23.8881 39.9671 23.2756 39.1115 22.7856L15.2782 9.18805C13.5671 8.20805 12.2227 8.94305 12.2227 10.9031V11.0256C12.2227 9.18805 13.5671 8.33055 15.2782 9.31055Z" fill="white"/>
<path d="M51.4552 17.5187H50.5996V15.0687H51.3329C51.9441 14.5787 52.3107 13.5987 52.3107 12.2512V8.57617H57.1996V15.0687H58.0552V17.5187H57.1996V15.9262H51.5774V17.5187H51.4552ZM53.1663 12.2512C53.1663 13.3537 52.9218 14.3337 52.4329 15.0687H56.0996V9.43367H53.0441V12.2512H53.1663Z" fill="white" stroke="white" stroke-width="0.2" stroke-miterlimit="10"/>
<path d="M65.2659 14.9456C64.5325 15.6806 63.677 16.0481 62.577 16.0481C61.477 16.0481 60.6214 15.6806 59.8881 14.9456C59.1548 14.2106 58.7881 13.3531 58.7881 12.2506C58.7881 11.1481 59.1548 10.2906 59.8881 9.55563C60.6214 8.82063 61.477 8.45312 62.577 8.45312C63.677 8.45312 64.5325 8.82063 65.2659 9.55563C65.9992 10.2906 66.3659 11.1481 66.3659 12.2506C66.3659 13.3531 65.9992 14.2106 65.2659 14.9456ZM60.6214 14.3331C61.1103 14.8231 61.8436 15.1906 62.577 15.1906C63.3103 15.1906 64.0436 14.9456 64.5325 14.3331C65.0214 13.8431 65.3881 13.1081 65.3881 12.2506C65.3881 11.3931 65.1436 10.6581 64.5325 10.1681C64.0436 9.67813 63.3103 9.31062 62.577 9.31062C61.8436 9.31062 61.1103 9.55563 60.6214 10.1681C60.1325 10.6581 59.7659 11.3931 59.7659 12.2506C59.7659 13.1081 60.0103 13.8431 60.6214 14.3331Z" fill="white" stroke="white" stroke-width="0.2" stroke-miterlimit="10"/>
<path d="M71.1326 16.0481C70.0326 16.0481 69.1771 15.6806 68.4438 14.9456C67.7104 14.2106 67.3438 13.3531 67.3438 12.2506C67.3438 11.1481 67.7104 10.2906 68.4438 9.55563C69.1771 8.82063 70.0326 8.45312 71.1326 8.45312C72.2326 8.45312 73.0882 8.82063 73.8215 9.67813L73.2104 10.2906C72.7215 9.67812 71.9882 9.31062 71.1326 9.31062C70.2771 9.31062 69.666 9.55563 69.0549 10.1681C68.4438 10.6581 68.1993 11.3931 68.1993 12.2506C68.1993 13.1081 68.4438 13.8431 69.0549 14.3331C69.5438 14.8231 70.2771 15.1906 71.1326 15.1906C71.9882 15.1906 72.7215 14.8231 73.3326 14.0881L73.9437 14.7006C73.5771 15.0681 73.2104 15.4356 72.7215 15.6806C72.2326 15.9256 71.7438 16.0481 71.1326 16.0481Z" fill="white" stroke="white" stroke-width="0.2" stroke-miterlimit="10"/>
<path d="M77.8554 15.9262H76.8776V9.43367H74.7998V8.57617H79.8109V9.43367H77.7331V15.9262H77.8554Z" fill="white" stroke="white" stroke-width="0.2" stroke-miterlimit="10"/>
<path d="M86.2885 8.57617L83.4774 14.8237C83.1108 15.6812 82.4997 16.1712 81.7663 16.1712C81.5219 16.1712 81.2774 16.1712 81.033 16.0487L81.2774 15.1912C81.3996 15.3137 81.6441 15.3137 81.7663 15.3137C82.0108 15.3137 82.133 15.3137 82.2552 15.1912C82.3774 15.0687 82.4996 14.9462 82.6219 14.7012L82.8663 14.0887L80.4219 8.69867H81.5219L83.3552 12.8637L85.1885 8.57617H86.2885Z" fill="white" stroke="white" stroke-width="0.2" stroke-miterlimit="10"/>
<path d="M87.3887 15.9262V8.57617H92.6442V15.9262H91.6664V9.43367H88.2442V15.9262H87.3887Z" fill="white" stroke="white" stroke-width="0.2" stroke-miterlimit="10"/>
<path d="M94.3555 15.9262V8.57617H95.3333V11.7612H98.9999V8.57617H99.9777V15.9262H98.9999V12.6187H95.3333V15.9262H94.3555Z" fill="white" stroke="white" stroke-width="0.2" stroke-miterlimit="10"/>
<path d="M107.677 14.9456C106.944 15.6806 106.088 16.0481 104.988 16.0481C103.888 16.0481 103.033 15.6806 102.299 14.9456C101.566 14.2106 101.199 13.3531 101.199 12.2506C101.199 11.1481 101.566 10.2906 102.299 9.55563C103.033 8.82063 103.888 8.45312 104.988 8.45312C106.088 8.45312 106.944 8.82063 107.677 9.55563C108.41 10.2906 108.777 11.1481 108.777 12.2506C108.655 13.3531 108.288 14.2106 107.677 14.9456ZM102.91 14.3331C103.399 14.8231 104.133 15.1906 104.866 15.1906C105.599 15.1906 106.333 14.9456 106.821 14.3331C107.31 13.8431 107.677 13.1081 107.677 12.2506C107.677 11.3931 107.433 10.6581 106.821 10.1681C106.333 9.67813 105.599 9.31062 104.866 9.31062C104.133 9.31062 103.399 9.55563 102.91 10.1681C102.421 10.6581 102.055 11.3931 102.055 12.2506C102.055 13.1081 102.421 13.8431 102.91 14.3331Z" fill="white" stroke="white" stroke-width="0.2" stroke-miterlimit="10"/>
<path d="M112.566 15.9262V8.57617H115.255C115.866 8.57617 116.355 8.82117 116.722 9.18867C117.089 9.55617 117.333 10.0462 117.333 10.5362C117.333 10.9037 117.211 11.1487 117.089 11.5162C116.966 11.7612 116.722 12.0062 116.355 12.1287C116.722 12.2512 116.966 12.4962 117.211 12.7412C117.455 12.9862 117.578 13.3537 117.578 13.8437C117.578 14.4562 117.333 14.9462 116.966 15.3137C116.478 15.6812 115.989 15.9262 115.378 15.9262H112.566ZM113.544 11.7612H115.255C115.622 11.7612 115.866 11.6387 116.111 11.3937C116.355 11.1487 116.478 10.9037 116.478 10.6587C116.478 10.4137 116.233 10.0462 116.111 9.80117C115.866 9.55617 115.622 9.43367 115.255 9.43367H113.544V11.7612ZM113.544 15.0687H115.5C115.866 15.0687 116.111 14.9462 116.355 14.7012C116.6 14.4562 116.722 14.2112 116.722 13.8437C116.722 13.5987 116.6 13.2312 116.355 12.9862C116.111 12.7412 115.866 12.6187 115.5 12.6187H113.666V15.0687H113.544Z" fill="white" stroke="white" stroke-width="0.2" stroke-miterlimit="10"/>
<defs>
<linearGradient id="paint0_linear" x1="26.6444" y1="10.6695" x2="6.086" y2="31.1813" gradientUnits="userSpaceOnUse">
<stop stop-color="#00A0FF"/>
<stop offset="0.00657445" stop-color="#00A1FF"/>
<stop offset="0.2601" stop-color="#00BEFF"/>
<stop offset="0.5122" stop-color="#00D2FF"/>
<stop offset="0.7604" stop-color="#00DFFF"/>
<stop offset="1" stop-color="#00E3FF"/>
</linearGradient>
<linearGradient id="paint1_linear" x1="41.3534" y1="24.5023" x2="11.7794" y2="24.5023" gradientUnits="userSpaceOnUse">
<stop stop-color="#FFE000"/>
<stop offset="0.4087" stop-color="#FFBD00"/>
<stop offset="0.7754" stop-color="#FFA500"/>
<stop offset="1" stop-color="#FF9C00"/>
</linearGradient>
<linearGradient id="paint2_linear" x1="30.3448" y1="27.3128" x2="2.46595" y2="55.1285" gradientUnits="userSpaceOnUse">
<stop stop-color="#FF3A44"/>
<stop offset="1" stop-color="#C31162"/>
</linearGradient>
<linearGradient id="paint3_linear" x1="8.9196" y1="0.21631" x2="21.3688" y2="12.6371" gradientUnits="userSpaceOnUse">
<stop stop-color="#32A071"/>
<stop offset="0.0685" stop-color="#2DA771"/>
<stop offset="0.4762" stop-color="#15CF74"/>
<stop offset="0.8009" stop-color="#06E775"/>
<stop offset="1" stop-color="#00F076"/>
</linearGradient>
</defs>
</svg>
